<svg xmlns="http://www.w3.org/2000/svg" viewBox="0 0 1200 500" role="img" aria-labelledby="title desc">
  <title id="title">V Voice</title>
  <desc id="desc">Project dossier for V Voice, a Windows voice-to-text desktop widget powered by local or cloud Whisper.</desc>
  <rect width="1200" height="500" fill="#F3F1E8"/>
  <path d="M42 42H1158M42 458H1158" stroke="#121212" stroke-width="2"/>
  <path d="M42 42V458M1158 42V458" stroke="#121212" stroke-width="1" opacity=".55"/>
  <g font-family="sans-serif" fill="#121212">
    <text x="72" y="81" font-size="13" font-weight="700" letter-spacing="2">RELEASE 03 / DESKTOP UTILITY</text>
    <text x="1128" y="81" text-anchor="end" font-size="13" font-weight="700" letter-spacing="2">ACTIVE RECORD</text>
    <text x="72" y="220" font-size="112" font-weight="900" letter-spacing="-6">V VOICE</text>
    <text x="78" y="272" font-size="21" font-weight="700">Fast Windows dictation with local or cloud Whisper.</text>
    <text x="78" y="307" font-size="18">A lightweight voice-to-text desktop widget built with Tauri.</text>
  </g>
  <g transform="translate(900 104)" fill="none" stroke="#173B82" stroke-linecap="square">
    <rect x="50" y="0" width="76" height="151" rx="38" stroke-width="6"/>
    <path d="M26 96C26 174 150 174 150 96M88 174V225M48 225H128" stroke-width="6"/>
    <path d="M71 39V101M105 39V82" stroke="#F15A24" stroke-width="8"/>
    <path d="M0 113H15M161 113H176" stroke="#F15A24" stroke-width="8"/>
  </g>
  <g transform="translate(72 374)" font-family="sans-serif" font-size="13" font-weight="700" letter-spacing="1.2">
    <rect width="70" height="38" fill="#173B82"/><text x="35" y="25" fill="#F3F1E8" text-anchor="middle">RUST</text>
    <rect x="81" width="101" height="38" fill="#121212"/><text x="131.5" y="25" fill="#F3F1E8" text-anchor="middle">TAURI 2</text>
    <rect x="193" width="83" height="38" fill="#F15A24"/><text x="234.5" y="25" fill="#121212" text-anchor="middle">REACT</text>
  </g>
  <path d="M1116 370H1158V412H1116Z" fill="#F15A24"/>
</svg>
